<mxfile host="app.diagrams.net" modified="2022-11-23T23:54:21.309Z" agent="5.0 (Windows NT 10.0; Win64; x64) AppleWebKit/537.36 (KHTML, like Gecko) Chrome/105.0.0.0 Safari/537.36 OPR/91.0.4516.106" etag="LsVvrM-B_hDjWpIblulE" version="20.2.0" type="github">
  <diagram id="kgpKYQtTHZ0yAKxKKP6v" name="Page-1">
    <mxGraphModel dx="1454" dy="837" grid="1" gridSize="10" guides="1" tooltips="1" connect="1" arrows="1" fold="1" page="1" pageScale="1" pageWidth="1100" pageHeight="850" background="none" math="0" shadow="0">
      <root>
        <mxCell id="0" />
        <mxCell id="1" parent="0" />
        <mxCell id="ov9pkx0FXtZe_AHul5qp-3" style="edgeStyle=orthogonalEdgeStyle;rounded=0;orthogonalLoop=1;jettySize=auto;html=1;exitX=1;exitY=0.5;exitDx=0;exitDy=0;" edge="1" parent="1" source="ov9pkx0FXtZe_AHul5qp-1" target="ov9pkx0FXtZe_AHul5qp-2">
          <mxGeometry relative="1" as="geometry" />
        </mxCell>
        <mxCell id="ov9pkx0FXtZe_AHul5qp-1" value="Open App" style="rounded=1;whiteSpace=wrap;html=1;" vertex="1" parent="1">
          <mxGeometry x="30" y="280" width="120" height="60" as="geometry" />
        </mxCell>
        <mxCell id="ov9pkx0FXtZe_AHul5qp-6" value="" style="edgeStyle=orthogonalEdgeStyle;rounded=0;orthogonalLoop=1;jettySize=auto;html=1;" edge="1" parent="1" source="ov9pkx0FXtZe_AHul5qp-2" target="ov9pkx0FXtZe_AHul5qp-5">
          <mxGeometry relative="1" as="geometry" />
        </mxCell>
        <mxCell id="ov9pkx0FXtZe_AHul5qp-2" value="Find the new data from xml" style="rounded=1;whiteSpace=wrap;html=1;" vertex="1" parent="1">
          <mxGeometry x="170" y="280" width="120" height="60" as="geometry" />
        </mxCell>
        <mxCell id="ov9pkx0FXtZe_AHul5qp-9" style="edgeStyle=orthogonalEdgeStyle;rounded=0;orthogonalLoop=1;jettySize=auto;html=1;exitX=1;exitY=0.5;exitDx=0;exitDy=0;entryX=0;entryY=0.5;entryDx=0;entryDy=0;" edge="1" parent="1" source="ov9pkx0FXtZe_AHul5qp-5" target="ov9pkx0FXtZe_AHul5qp-8">
          <mxGeometry relative="1" as="geometry" />
        </mxCell>
        <mxCell id="ov9pkx0FXtZe_AHul5qp-5" value="connect each data with pdf by id and save in table" style="rounded=1;whiteSpace=wrap;html=1;" vertex="1" parent="1">
          <mxGeometry x="310" y="280" width="120" height="60" as="geometry" />
        </mxCell>
        <mxCell id="ov9pkx0FXtZe_AHul5qp-11" style="edgeStyle=orthogonalEdgeStyle;rounded=0;orthogonalLoop=1;jettySize=auto;html=1;entryX=0;entryY=0.5;entryDx=0;entryDy=0;" edge="1" parent="1" source="ov9pkx0FXtZe_AHul5qp-8" target="ov9pkx0FXtZe_AHul5qp-10">
          <mxGeometry relative="1" as="geometry">
            <Array as="points">
              <mxPoint x="490" y="155" />
            </Array>
          </mxGeometry>
        </mxCell>
        <mxCell id="ov9pkx0FXtZe_AHul5qp-13" style="edgeStyle=orthogonalEdgeStyle;rounded=0;orthogonalLoop=1;jettySize=auto;html=1;exitX=1;exitY=0.5;exitDx=0;exitDy=0;entryX=0;entryY=0.5;entryDx=0;entryDy=0;" edge="1" parent="1" source="ov9pkx0FXtZe_AHul5qp-8" target="ov9pkx0FXtZe_AHul5qp-12">
          <mxGeometry relative="1" as="geometry" />
        </mxCell>
        <mxCell id="ov9pkx0FXtZe_AHul5qp-15" style="edgeStyle=orthogonalEdgeStyle;rounded=0;orthogonalLoop=1;jettySize=auto;html=1;exitX=0.5;exitY=1;exitDx=0;exitDy=0;entryX=0;entryY=0.5;entryDx=0;entryDy=0;" edge="1" parent="1" source="ov9pkx0FXtZe_AHul5qp-8" target="ov9pkx0FXtZe_AHul5qp-14">
          <mxGeometry relative="1" as="geometry" />
        </mxCell>
        <mxCell id="ov9pkx0FXtZe_AHul5qp-8" value="Filter" style="rhombus;whiteSpace=wrap;html=1;" vertex="1" parent="1">
          <mxGeometry x="450" y="270" width="80" height="80" as="geometry" />
        </mxCell>
        <mxCell id="ov9pkx0FXtZe_AHul5qp-19" style="edgeStyle=orthogonalEdgeStyle;rounded=0;orthogonalLoop=1;jettySize=auto;html=1;entryX=0;entryY=0;entryDx=0;entryDy=0;" edge="1" parent="1" source="ov9pkx0FXtZe_AHul5qp-10" target="ov9pkx0FXtZe_AHul5qp-16">
          <mxGeometry relative="1" as="geometry" />
        </mxCell>
        <mxCell id="ov9pkx0FXtZe_AHul5qp-10" value="Filter by tickets(checking the additional info sent by the company and comparing to the ticket id) and send to the department" style="rounded=1;whiteSpace=wrap;html=1;" vertex="1" parent="1">
          <mxGeometry x="550" y="100" width="120" height="110" as="geometry" />
        </mxCell>
        <mxCell id="ov9pkx0FXtZe_AHul5qp-18" style="edgeStyle=orthogonalEdgeStyle;rounded=0;orthogonalLoop=1;jettySize=auto;html=1;exitX=1;exitY=0.5;exitDx=0;exitDy=0;entryX=0;entryY=0.5;entryDx=0;entryDy=0;" edge="1" parent="1" source="ov9pkx0FXtZe_AHul5qp-12" target="ov9pkx0FXtZe_AHul5qp-16">
          <mxGeometry relative="1" as="geometry" />
        </mxCell>
        <mxCell id="ov9pkx0FXtZe_AHul5qp-12" value="Filter by Ref. Book(check the Vendor TIN) and send to the department by id" style="rounded=1;whiteSpace=wrap;html=1;" vertex="1" parent="1">
          <mxGeometry x="550" y="270" width="120" height="80" as="geometry" />
        </mxCell>
        <mxCell id="ov9pkx0FXtZe_AHul5qp-17" style="edgeStyle=orthogonalEdgeStyle;rounded=0;orthogonalLoop=1;jettySize=auto;html=1;exitX=1;exitY=0.5;exitDx=0;exitDy=0;entryX=0;entryY=1;entryDx=0;entryDy=0;" edge="1" parent="1" source="ov9pkx0FXtZe_AHul5qp-14" target="ov9pkx0FXtZe_AHul5qp-16">
          <mxGeometry relative="1" as="geometry" />
        </mxCell>
        <mxCell id="ov9pkx0FXtZe_AHul5qp-14" value="the accountant should send to the department" style="rounded=1;whiteSpace=wrap;html=1;" vertex="1" parent="1">
          <mxGeometry x="550" y="400" width="120" height="60" as="geometry" />
        </mxCell>
        <mxCell id="ov9pkx0FXtZe_AHul5qp-21" value="" style="edgeStyle=orthogonalEdgeStyle;rounded=0;orthogonalLoop=1;jettySize=auto;html=1;" edge="1" parent="1" source="ov9pkx0FXtZe_AHul5qp-16" target="ov9pkx0FXtZe_AHul5qp-20">
          <mxGeometry relative="1" as="geometry" />
        </mxCell>
        <mxCell id="ov9pkx0FXtZe_AHul5qp-16" value="Departments Approvments workflow." style="rounded=0;whiteSpace=wrap;html=1;" vertex="1" parent="1">
          <mxGeometry x="770" y="280" width="120" height="60" as="geometry" />
        </mxCell>
        <mxCell id="ov9pkx0FXtZe_AHul5qp-23" style="edgeStyle=orthogonalEdgeStyle;rounded=0;orthogonalLoop=1;jettySize=auto;html=1;exitX=0.5;exitY=1;exitDx=0;exitDy=0;entryX=0.5;entryY=1;entryDx=0;entryDy=0;" edge="1" parent="1" source="ov9pkx0FXtZe_AHul5qp-20" target="ov9pkx0FXtZe_AHul5qp-14">
          <mxGeometry relative="1" as="geometry" />
        </mxCell>
        <mxCell id="ov9pkx0FXtZe_AHul5qp-24" value="&lt;font style=&quot;font-size: 15px;&quot;&gt;Deny&lt;/font&gt;" style="edgeLabel;html=1;align=center;verticalAlign=middle;resizable=0;points=[];" vertex="1" connectable="0" parent="ov9pkx0FXtZe_AHul5qp-23">
          <mxGeometry x="0.0455" relative="1" as="geometry">
            <mxPoint as="offset" />
          </mxGeometry>
        </mxCell>
        <mxCell id="ov9pkx0FXtZe_AHul5qp-26" value="" style="edgeStyle=orthogonalEdgeStyle;rounded=0;orthogonalLoop=1;jettySize=auto;html=1;fontSize=15;" edge="1" parent="1" source="ov9pkx0FXtZe_AHul5qp-20" target="ov9pkx0FXtZe_AHul5qp-25">
          <mxGeometry relative="1" as="geometry" />
        </mxCell>
        <mxCell id="ov9pkx0FXtZe_AHul5qp-27" value="Approve&lt;br&gt;" style="edgeLabel;html=1;align=center;verticalAlign=middle;resizable=0;points=[];fontSize=15;" vertex="1" connectable="0" parent="ov9pkx0FXtZe_AHul5qp-26">
          <mxGeometry x="-0.2129" y="1" relative="1" as="geometry">
            <mxPoint as="offset" />
          </mxGeometry>
        </mxCell>
        <mxCell id="ov9pkx0FXtZe_AHul5qp-20" value="Deny or Approve" style="rhombus;whiteSpace=wrap;html=1;rounded=0;" vertex="1" parent="1">
          <mxGeometry x="950" y="270" width="80" height="80" as="geometry" />
        </mxCell>
        <mxCell id="ov9pkx0FXtZe_AHul5qp-25" value="Approve&lt;br&gt;" style="whiteSpace=wrap;html=1;rounded=0;" vertex="1" parent="1">
          <mxGeometry x="930" y="120" width="120" height="60" as="geometry" />
        </mxCell>
      </root>
    </mxGraphModel>
  </diagram>
</mxfile>
